<svg width="24" height="24" viewBox="0 0 24 24" fill="none" xmlns="http://www.w3.org/2000/svg">
<path d="M17.9999 4H5.99993C4.89493 4 3.97393 4.91 4.24693 5.98C4.53756 7.11389 5.07294 8.1704 5.81545 9.07531C6.55796 9.98021 7.48961 10.7116 8.54493 11.218C9.36793 11.612 9.99993 12.386 9.99993 13.298V19.382C10 19.5524 10.0437 19.7199 10.1267 19.8687C10.2097 20.0175 10.3294 20.1426 10.4743 20.2322C10.6193 20.3218 10.7847 20.3728 10.9549 20.3805C11.1252 20.3881 11.2945 20.3522 11.4469 20.276L13.4469 19.276C13.613 19.193 13.7527 19.0654 13.8504 18.9075C13.948 18.7496 13.9998 18.5677 13.9999 18.382V13.298C13.9999 12.386 14.6319 11.612 15.4539 11.218C16.5097 10.7119 17.4417 9.98062 18.1846 9.0757C18.9275 8.17077 19.4631 7.11411 19.7539 5.98C20.0249 4.91 19.1029 4 17.9999 4Z" stroke="black" stroke-width="2"/>
</svg>
