<svg width="32" height="32" viewBox="0 0 32 32" fill="none" xmlns="http://www.w3.org/2000/svg">
<path d="M27.873 13.534C27.5718 14.3881 27.0252 15.3711 26.1972 16.4866C25.369 17.6018 24.2383 18.8809 22.793 20.3262C21.3429 21.7762 19.5014 23.5078 17.2651 25.5227C17.2648 25.5231 17.2644 25.5234 17.264 25.5237L16.0001 26.6569L14.7361 25.5237C14.7358 25.5234 14.7354 25.5231 14.735 25.5227C12.4987 23.5078 10.6572 21.7762 9.20719 20.3262C7.76182 18.8808 6.63105 17.6017 5.80293 16.4865L5.80272 16.4862C4.97388 15.3709 4.42767 14.3883 4.1274 13.5348C3.82033 12.662 3.66758 11.7739 3.66675 10.8662C3.66685 9.02651 4.27266 7.54163 5.47385 6.34043C6.67515 5.13914 8.16018 4.53333 10.0001 4.53333C11.0094 4.53333 11.9647 4.74571 12.8761 5.17235C13.7892 5.59973 14.5743 6.20002 15.2381 6.98097C15.4281 7.2045 15.7067 7.33333 16.0001 7.33333C16.2934 7.33333 16.572 7.2045 16.762 6.98097C17.4258 6.20002 18.211 5.59973 19.124 5.17235C20.0355 4.74571 20.9907 4.53333 22.0001 4.53333C23.84 4.53333 25.325 5.13914 26.5263 6.34043C27.7276 7.54173 28.3334 9.02676 28.3334 10.8667C28.3334 11.7739 28.1808 12.6615 27.873 13.534Z" fill="#F54646" stroke="white" stroke-width="2" stroke-linejoin="round"/>
</svg>
