<svg width="32" height="32" viewBox="0 0 32 32" fill="none" xmlns="http://www.w3.org/2000/svg">
<path d="M16.0001 28L14.0667 26.2667C11.8223 24.2444 9.96675 22.5 8.50008 21.0333C7.03342 19.5667 5.86675 18.2498 5.00008 17.0827C4.13341 15.9164 3.52808 14.8444 3.18408 13.8667C2.84008 12.8889 2.66764 11.8889 2.66675 10.8667C2.66675 8.77777 3.36675 7.03333 4.76675 5.63333C6.16675 4.23333 7.91119 3.53333 10.0001 3.53333C11.1556 3.53333 12.2556 3.77777 13.3001 4.26666C14.3445 4.75555 15.2445 5.44444 16.0001 6.33333C16.7556 5.44444 17.6556 4.75555 18.7001 4.26666C19.7445 3.77777 20.8445 3.53333 22.0001 3.53333C24.089 3.53333 25.8334 4.23333 27.2334 5.63333C28.6334 7.03333 29.3334 8.77777 29.3334 10.8667C29.3334 11.8889 29.161 12.8889 28.8161 13.8667C28.4712 14.8444 27.8659 15.9164 27.0001 17.0827C26.1334 18.2498 24.9667 19.5667 23.5001 21.0333C22.0334 22.5 20.1779 24.2444 17.9334 26.2667L16.0001 28ZM16.0001 24.4C18.1334 22.4889 19.889 20.8498 21.2667 19.4827C22.6445 18.1155 23.7334 16.9271 24.5334 15.9173C25.3334 14.9058 25.889 14.0053 26.2001 13.216C26.5112 12.4267 26.6667 11.6435 26.6667 10.8667C26.6667 9.53332 26.2223 8.42221 25.3334 7.53333C24.4445 6.64444 23.3334 6.19999 22.0001 6.19999C20.9556 6.19999 19.989 6.49421 19.1001 7.08266C18.2112 7.6711 17.6001 8.42133 17.2667 9.33333H14.7334C14.4001 8.42221 13.789 7.67199 12.9001 7.08266C12.0112 6.49332 11.0445 6.1991 10.0001 6.19999C8.66675 6.19999 7.55564 6.64444 6.66675 7.53333C5.77786 8.42221 5.33341 9.53332 5.33341 10.8667C5.33341 11.6444 5.48897 12.428 5.80008 13.2173C6.11119 14.0067 6.66675 14.9067 7.46675 15.9173C8.26675 16.928 9.35564 18.1169 10.7334 19.484C12.1112 20.8511 13.8667 22.4898 16.0001 24.4Z" fill="#FAFAFA"/>
</svg>
