<svg width="32" height="32" viewBox="0 0 32 32" fill="none" xmlns="http://www.w3.org/2000/svg">
<path d="M16.0001 28L14.0667 26.2667C11.8223 24.2444 9.96675 22.5 8.50008 21.0333C7.03341 19.5667 5.86675 18.2498 5.00008 17.0827C4.13341 15.9164 3.52808 14.8444 3.18408 13.8667C2.84008 12.8889 2.66764 11.8889 2.66675 10.8667C2.66675 8.77777 3.36675 7.03332 4.76675 5.63333C6.16675 4.23333 7.91119 3.53333 10.0001 3.53333C11.1556 3.53333 12.2556 3.77777 13.3001 4.26666C14.3445 4.75555 15.2445 5.44444 16.0001 6.33333C16.7556 5.44444 17.6556 4.75555 18.7001 4.26666C19.7445 3.77777 20.8445 3.53333 22.0001 3.53333C24.089 3.53333 25.8334 4.23333 27.2334 5.63333C28.6334 7.03332 29.3334 8.77777 29.3334 10.8667C29.3334 11.8889 29.161 12.8889 28.8161 13.8667C28.4712 14.8444 27.8659 15.9164 27.0001 17.0827C26.1334 18.2498 24.9667 19.5667 23.5001 21.0333C22.0334 22.5 20.1779 24.2444 17.9334 26.2667L16.0001 28Z" fill="#F54646"/>
</svg>
