<svg width="74" height="75" viewBox="0 0 74 75" fill="none" xmlns="http://www.w3.org/2000/svg">
<path d="M44.1355 37.5C44.1355 39.572 43.3338 41.5591 41.9067 43.0243C40.4797 44.4894 38.5441 45.3125 36.526 45.3125C34.5078 45.3125 32.5722 44.4894 31.1452 43.0243C29.7181 41.5591 28.9164 39.572 28.9164 37.5C28.9164 35.428 29.7181 33.4409 31.1452 31.9757C32.5722 30.5106 34.5078 29.6875 36.526 29.6875C38.5441 29.6875 40.4797 30.5106 41.9067 31.9757C43.3338 33.4409 44.1355 35.428 44.1355 37.5ZM66.9643 37.5C66.9643 54.75 53.3279 68.75 36.526 68.75C19.724 68.75 6.08765 54.75 6.08765 37.5C6.08765 20.25 19.724 6.25 36.526 6.25C53.3279 6.25 66.9643 20.25 66.9643 37.5ZM60.8766 37.5H48.7013C48.7013 30.5937 43.2528 25 36.526 25C29.7991 25 24.3506 30.5937 24.3506 37.5H12.1753C12.1753 51.2812 23.1027 62.5 36.526 62.5C49.9493 62.5 60.8766 51.2812 60.8766 37.5Z" fill="white" fill-opacity="0.2"/>
</svg>
